# xmcd
#
# Track frame offsets: 
#        150
#        34260
#        62650
#        88481
#        121357
#        164224
#        189692
#        228658
#        262736
#        293213
#
# Disc length: 4268 seconds
#
# Revision: 3
# Processed by: cddbd v1.5.2PL0 Copyright (c) Steve Scherf et al.
# Submitted via: ExactAudioCopy v1.0b3
#
DISCID=9810aa0a
DTITLE=El  Gran  Combo - Salsa  Classics Revisited  CD 1
DYEAR=2003
DGENRE=Salsa
TTITLE0=Homenaje a Andy Montanez (Salsa Remix)
TTITLE1=La Muerte (E. Farrai) Salsa Remix
TTITLE2=Brujeria (Jorge Borrego) Salsa Remix
TTITLE3=Ojos Chinos (Kito Velez) Salsa Remix
TTITLE4=Medley Romantico (Salsa Remix)
TTITLE5=Y No Hago Mas Na' (Chiquitin Gracia) Reggaeton Mix
TTITLE6=Se me Fué (Perín Vazquez) Salsa Remix
TTITLE7=El Menú (Perín Vazquez) Salsa Remix
TTITLE8=La Loma del Tamarindo (W.Santiago) Salsa Remix
TTITLE9=Que me lo den en Vida (Mike Amadeo) Salsa Remix
EXTD=YEAR: 2003
EXTT0=
EXTT1=
EXTT2=
EXTT3=
EXTT4=
EXTT5=
EXTT6=
EXTT7=
EXTT8=
EXTT9=
PLAYORDER=
